<svg width="800" height="800" viewBox="0 0 24 24" fill="none" xmlns="http://www.w3.org/2000/svg"><path opacity=".15" fill-rule="evenodd" clip-rule="evenodd" d="M8 14V4h9.36a2 2 0 0 1 1.962 1.608l1.2 6A2 2 0 0 1 18.56 14H14l2.426 3.639a2 2 0 0 1-1.18 3.05l-.047.011a2 2 0 0 1-2.003-.639L8 14Z" fill="#a30000"/><path d="M8 14V4m0 10H4V4h4m0 10 5.196 6.061a2 2 0 0 0 2.003.64l.048-.013a2 2 0 0 0 1.179-3.05L14 14h4.56a2 2 0 0 0 1.962-2.392l-1.2-6A2 2 0 0 0 17.36 4H8" stroke="#a30000" stroke-width="1.5" stroke-linecap="round" stroke-linejoin="round"/></svg>