<svg width="800" height="800" viewBox="0 0 24 24" fill="none" xmlns="http://www.w3.org/2000/svg"><path opacity=".15" fill-rule="evenodd" clip-rule="evenodd" d="M8 10v10h9.36a2 2 0 0 0 1.962-1.608l1.2-6A2 2 0 0 0 18.56 10H14l2.426-3.639a2 2 0 0 0-1.18-3.05L15.2 3.3a2 2 0 0 0-2.003.639L8 10Z" fill="#0f8500"/><path d="M8 10v10m0-10H4v10h4m0-10 5.196-6.062a2 2 0 0 1 2.003-.638l.048.012a2 2 0 0 1 1.179 3.05L14 10h4.56a2 2 0 0 1 1.962 2.392l-1.2 6A2 2 0 0 1 17.36 20H8" stroke="#0f8500" stroke-width="1.5" stroke-linecap="round" stroke-linejoin="round"/></svg>