<svg width="45" height="60" fill="none" xmlns="http://www.w3.org/2000/svg"><path d="M41.786 0H3.214C1.438 0 0 1.677 0 3.75V52.5C0 56.642 2.878 60 6.429 60h35.357C43.562 60 45 58.323 45 56.25V3.75C45 1.677 43.562 0 41.786 0ZM38.57 52.5H9.643c-1.777 0-3.214-1.677-3.214-3.75S7.866 45 9.643 45H38.57v7.5Zm0-15H6.43v-30H38.57v30Z" fill="#394240"/><path d="M38.571 52.5H9.643c-1.777 0-3.214-1.677-3.214-3.75S7.866 45 9.643 45H38.57v7.5Z" fill="#F9EBB2"/><path d="M38.571 7.5H6.43v30H38.57v-30Z" fill="#45AAB8"/><path d="M28.158 15.428H17.632a.995.995 0 0 0-.745.348 1.273 1.273 0 0 0-.308.841v11.897c0 .316.11.618.308.841a.995.995 0 0 0 .745.349h10.526c.28 0 .547-.126.744-.349.198-.223.309-.525.309-.84V16.616c0-.315-.111-.618-.309-.841a.995.995 0 0 0-.744-.348ZM25 24.944h-4.21v-4.759H25v4.759Z" fill="#2CA9BC"/><path d="M22.895 15.428v-3.57m4.21 3.57v-2.38m-8.42 2.38v-2.38m10.526 9.518h3.157m-3.157 4.758h2.105m-2.105-9.517h2.105m-8.421 11.897v3.569m-4.21-3.57v2.38m8.42-2.38v2.38M16.58 22.566h-3.158m3.158-4.76h-2.105m2.105 9.518h-2.105m14.737 1.19V16.617c0-.315-.111-.618-.309-.841a.995.995 0 0 0-.744-.348H17.632a.995.995 0 0 0-.745.348 1.273 1.273 0 0 0-.308.841v11.897c0 .316.11.618.308.841a.995.995 0 0 0 .745.349h10.526c.28 0 .547-.126.744-.349.198-.223.309-.525.309-.84ZM25 20.186h-4.21v4.759H25v-4.759Z" stroke="#000" stroke-width="2" stroke-linecap="round" stroke-linejoin="round"/></svg>