<svg xmlns="http://www.w3.org/2000/svg" width="800" height="800" viewBox="0 0 24 24" xml:space="preserve"><path d="M15 24c-.3 0-.5-.1-.7-.3l-14-14c-.2-.2-.3-.6-.3-.9.1-.3.3-.6.6-.7l22-8c.4-.1.8 0 1 .2.3.3.4.7.2 1l-8 22c-.1.3-.4.6-.7.6 0 .1 0 .1-.1.1zM2.8 9.4l11.8 11.8 6.7-18.5L2.8 9.4z"/><path d="M6 15c-.3 0-.6-.1-.8-.4-.3-.4-.3-1.1.2-1.4l17-13c.4-.3 1.1-.3 1.4.2.3.4.3 1.1-.2 1.4l-17 13c-.2.1-.4.2-.6.2z"/><path d="M6 23c-.6 0-1-.4-1-1v-8c0-.6.4-1 1-1s1 .4 1 1v8c0 .6-.4 1-1 1z"/><path d="M6 23c-.2 0-.4-.1-.6-.2-.4-.3-.5-1-.1-1.4L8.8 17c.3-.4 1-.5 1.4-.1.4.3.5 1 .1 1.4l-3.6 4.4c-.1.2-.4.3-.7.3z"/></svg>