<svg xmlns="http://www.w3.org/2000/svg" xml:space="preserve" width="800" height="800" viewBox="0 0 512 512"><path d="M256 0C114.848 0 0 114.848 0 256s114.848 256 256 256 256-114.848 256-256S397.152 0 256 0zm0 490.667c-129.397 0-234.667-105.27-234.667-234.667S126.603 21.333 256 21.333 490.667 126.603 490.667 256 385.397 490.667 256 490.667z"/><path d="M415.179 251.925a10.657 10.657 0 0 0-2.315-3.477L295.531 131.115c-4.237-4.093-10.99-3.976-15.083.262a10.666 10.666 0 0 0 0 14.821l99.136 99.136H106.667C100.776 245.333 96 250.109 96 256s4.776 10.667 10.667 10.667h272.917l-99.125 99.125c-4.237 4.093-4.354 10.846-.261 15.083s10.846 4.354 15.083.261c.089-.086.176-.173.261-.261l117.333-117.333a10.669 10.669 0 0 0 2.315-11.627l-.011.01z"/></svg>