<svg xmlns="http://www.w3.org/2000/svg" width="800" height="800" viewBox="-3.5 0 32 32"><path d="M12.406 13.844c1.188 0 2.156.969 2.156 2.156s-.969 2.125-2.156 2.125-2.125-.938-2.125-2.125.938-2.156 2.125-2.156zm0-5.313c7.063 0 12.156 6.625 12.156 6.625.344.438.344 1.219 0 1.656 0 0-5.094 6.625-12.156 6.625S.25 16.812.25 16.812c-.344-.438-.344-1.219 0-1.656 0 0 5.094-6.625 12.156-6.625zm0 12.813c2.938 0 5.344-2.406 5.344-5.344s-2.406-5.344-5.344-5.344S7.062 13.062 7.062 16s2.406 5.344 5.344 5.344z"/></svg>